<svg width="1080" height="1080" viewBox="0 0 1080 1080" fill="none" xmlns="http://www.w3.org/2000/svg">
<path d="M805.627 817.352C712.298 817.352 640.106 792.099 589.05 741.591C537.993 691.084 512.465 618.892 512.465 525.014C512.465 431.137 537.444 358.944 587.403 308.437C637.91 257.93 709.828 232.676 803.156 232.676C840.488 232.676 875.074 236.519 906.916 244.205C938.757 251.891 965.658 262.871 987.618 277.145C992.558 280.438 995.029 284.007 995.029 287.85C995.029 291.144 993.656 294.987 990.911 299.379L967.854 338.906C964.56 343.847 961.54 346.317 958.795 346.317C956.599 346.317 952.757 344.945 947.267 342.2C912.68 321.338 868.486 310.908 814.685 310.908C752.649 310.908 704.063 328.75 668.928 364.434C633.792 400.119 616.225 453.645 616.225 525.014C616.225 597.481 634.341 651.557 670.575 687.241C706.808 722.377 755.669 739.944 817.156 739.944C874.251 739.944 921.189 729.239 957.972 707.828C963.462 705.084 967.03 703.711 968.677 703.711C971.971 703.711 975.265 706.182 978.559 711.122L1004.09 753.944C1005.73 757.238 1006.56 759.983 1006.56 762.179C1006.56 765.473 1003.54 769.041 997.499 772.884C955.227 802.53 891.269 817.352 805.627 817.352Z" fill="url(#paint0_linear_101_8)"/>
<path d="M390.708 926.281C342.488 926.281 294.946 921.187 248.084 911C201.9 900.133 164.886 885.192 137.04 866.175C128.211 860.063 123.796 854.629 123.796 849.875C123.796 845.121 125.155 841.046 127.871 837.65L161.49 784.675C165.565 778.563 169.301 775.507 172.696 775.507C176.092 775.507 180.507 777.205 185.94 780.6C211.069 795.542 240.273 807.767 273.552 817.275C306.831 826.104 340.45 830.519 374.408 830.519C420.592 830.519 455.229 823.048 478.321 808.107C502.091 792.486 513.977 767.696 513.977 733.738C513.977 713.363 509.562 697.063 500.733 684.838C491.904 672.613 479 662.086 462.021 653.257C445.041 644.428 417.535 632.542 379.502 617.601L356.071 608.432C311.925 590.774 275.25 573.795 246.046 557.495C217.521 541.195 193.75 519.801 174.734 493.314C155.717 466.826 146.209 434.566 146.209 396.533C146.209 334.729 169.64 287.187 216.502 253.908C264.044 219.95 326.188 202.971 402.933 202.971C449.796 202.971 490.206 207.385 524.164 216.214C558.802 225.043 588.685 238.627 613.814 256.964C621.964 263.077 626.039 268.85 626.039 274.283C626.039 278.358 624.681 282.093 621.964 285.489L589.364 338.464C585.289 344.576 581.893 347.633 579.177 347.633C576.46 347.633 572.045 345.595 565.933 341.52C522.466 313.674 468.473 299.752 403.952 299.752C361.165 299.752 328.904 307.562 307.171 323.183C285.438 338.804 274.571 363.593 274.571 397.551C274.571 418.605 278.986 435.585 287.815 448.489C297.323 460.714 310.906 471.241 328.565 480.07C346.223 488.899 374.748 500.784 414.139 515.726L439.608 525.913C489.187 545.609 527.9 563.947 555.745 580.926C583.591 597.226 604.985 617.94 619.926 643.069C635.547 667.519 643.358 699.101 643.358 737.813C643.358 796.221 621.285 842.404 577.139 876.363C533.672 909.642 471.529 926.281 390.708 926.281Z" fill="url(#paint1_linear_101_8)"/>
<defs>
<linearGradient id="paint0_linear_101_8" x1="1054.96" y1="177" x2="398.201" y2="749.657" gradientUnits="userSpaceOnUse">
<stop stop-color="#F8748C"/>
<stop offset="1" stop-color="#E68678"/>
</linearGradient>
<linearGradient id="paint1_linear_101_8" x1="775.22" y1="129" x2="-52.9825" y2="892.53" gradientUnits="userSpaceOnUse">
<stop stop-color="#4895C0"/>
<stop offset="1" stop-color="#4854C0"/>
</linearGradient>
</defs>
</svg>
